<svg xmlns="http://www.w3.org/2000/svg" width="56" height="56" viewBox="0 0 56 56">
    <defs>
        <clipPath id="vojoplekaa">
            <rect data-name="사각형 6" width="56" height="56" rx="11" transform="translate(1531 3790)" style="fill:#fae100"/>
        </clipPath>
    </defs>
    <g data-name="그룹 16">
        <g data-name="마스크 그룹 1" transform="translate(-1531 -3790)" style="clip-path:url(#vojoplekaa)">
            <path d="M1531 3790h56v56h-56z"/>
            <path data-name="" d="M35.92 25.944a4.56 4.56 0 0 0 3.18-1.722 5.594 5.594 0 0 0 1.238-3.382 2.346 2.346 0 0 0-.045-.477 5.167 5.167 0 0 0-3.445 1.845 5.3 5.3 0 0 0-1.283 3.274 2.172 2.172 0 0 0 .045.43 1.665 1.665 0 0 0 .31.032zm-3.729 18.6c1.447 0 2.088-1 3.893-1 1.835 0 2.237.969 3.848.969 1.581 0 2.64-1.507 3.639-2.982a13.749 13.749 0 0 0 1.611-3.431 5.294 5.294 0 0 1-3.132-4.889 5.5 5.5 0 0 1 2.52-4.611 5.454 5.454 0 0 0-4.638-2.4c-1.775 0-3.222 1.107-4.131 1.107-.984 0-2.282-1.045-3.818-1.045-2.923 0-5.891 2.49-5.891 7.195a15.189 15.189 0 0 0 2.461 8.009c1.162 1.696 2.176 3.079 3.638 3.079z" transform="translate(1523.364 3784.364)" style="fill:#fff"/>
        </g>
    </g>
</svg>
